:SAMPLES-PER-SECOND 30
:FULLY-SPECIFIED
:DEGREES
462
root  -18.748 40.5956 -24.6802 -157.354 -80.529 149.736
RightUpLeg  -2.7808 -17.9491 -12.0579
RightLeg  17.9262 4.31696 2.63344
RightFoot  -5.24822 -0.119085 1.5674
RightToes  0.00048216 0.542163 -0.142577
Spine  17.4457 -0.0910564 15.6394
Spine1  12.204 6.67872 -14.1425
HEad  22.814 50.4231 -11.1119
LeftShoulder1  8.08113 -11.7515 -46.1975
LeftArm  -12.2983 28.6995 -26.897
LeftForeArm  18.4724 -27.0471 -4.82746
LeftHand  -0.25398 0.0180481 5.50724
RightShoulder  5.25035 9.50039 34.4219
RightArm  1.86032 -16.8309 32.9511
RightForeArm  -10.3985 26.8811 6.31324
RightHand  -0.740691 -0.451142 -17.3238
LeftUpLeg  -7.53524 17.6152 -0.341983
LeftLeg  24.4345 12.5995 6.49911
LeftFoot  -3.84583 0.0384312 -0.297048
LeftToes  1.06246e-005 4.65856e-005 -8.18501e-006
463
root  -17.9786 40.6214 -24.3238 -154.161 -81.2182 146.881
RightUpLeg  -3.71292 -17.8247 -12.3716
RightLeg  16.6404 3.52594 2.91319
RightFoot  -3.49133 -0.142053 1.72633
RightToes  0.00048216 0.542163 -0.142577
Spine  16.4901 -0.327016 15.3055
Spine1  12.1186 6.2784 -14.2134
HEad  22.3084 51.28 -11.1002
LeftShoulder1  7.97285 -11.6058 -46.0115
LeftArm  -13.1764 28.6956 -26.3023
LeftForeArm  18.5774 -26.4368 -4.68586
LeftHand  -0.25398 0.0180481 5.50724
RightShoulder  5.23794 9.40483 34.6221
RightArm  1.42088 -18.4607 33.6426
RightForeArm  -10.4343 27.2536 6.40412
RightHand  -0.791116 -0.246485 -17.7906
LeftUpLeg  -5.29999 15.5922 2.04278
LeftLeg  27.0068 13.1475 7.50209
LeftFoot  -4.08598 0.058951 -0.652549
LeftToes  1.06246e-005 4.65856e-005 -8.18501e-006
464
root  -17.1685 40.5712 -23.914 -149.167 -82.2397 142.204
RightUpLeg  -4.94787 -18.118 -12.7167
RightLeg  16.0266 2.74055 3.03507
RightFoot  -1.92146 -0.182552 2.05139
RightToes  0.00048216 0.542163 -0.142577
Spine  15.6517 -0.608438 14.8554
Spine1  12.0305 5.74999 -13.9563
HEad  21.8569 51.974 -10.7966
LeftShoulder1  7.88877 -11.5089 -45.8135
LeftArm  -13.9053 28.4714 -25.8129
LeftForeArm  18.5353 -25.7688 -4.54091
LeftHand  -0.25398 0.0180481 5.50724
RightShoulder  5.2445 9.30573 34.9818
RightArm  0.900439 -20.1902 34.078
RightForeArm  -10.4888 27.4893 6.46354
RightHand  -0.807275 -0.172063 -17.9002
LeftUpLeg  -3.16135 13.4246 4.50631
LeftLeg  28.7324 12.8429 7.84827
LeftFoot  -3.69512 0.0631766 -0.744974
LeftToes  1.06246e-005 4.65856e-005 -8.18501e-006
465
root  -16.3107 40.464 -23.451 -141.336 -83.1363 134.717
RightUpLeg  -6.52344 -18.6283 -13.1886
RightLeg  15.8534 2.21316 2.84554
RightFoot  -0.658137 -0.290465 3.04999
RightToes  0.00048216 0.542163 -0.142577
Spine  14.9889 -0.774866 14.045
Spine1  11.9995 5.24261 -13.4212
HEad  21.3579 51.8083 -11.0961
LeftShoulder1  7.80425 -11.3764 -45.7224
LeftArm  -14.5326 28.0546 -25.407
LeftForeArm  18.4759 -25.4396 -4.47229
LeftHand  -0.25398 0.0180481 5.50724
RightShoulder  5.24158 9.2207 35.228
RightArm  0.932595 -21.7902 34.3703
RightForeArm  -10.7052 27.4137 6.45587
RightHand  -0.787502 -0.242372 -17.6958
LeftUpLeg  -1.21282 11.5235 6.77157
LeftLeg  29.7972 12.3294 7.86662
LeftFoot  -3.20464 0.0313248 -0.241708
LeftToes  1.06246e-005 4.65856e-005 -8.18501e-006
466
root  -15.4149 40.3075 -22.9303 -131.812 -83.8317 125.496
RightUpLeg  -8.23693 -18.9989 -13.6623
RightLeg  15.9631 1.79534 2.29934
RightFoot  -0.173171 -0.500427 5.11321
RightToes  0.00048216 0.542163 -0.142577
Spine  14.5402 -0.860044 13.1865
Spine1  12.0043 4.82435 -12.8563
HEad  20.7461 51.5675 -11.5889
LeftShoulder1  7.71448 -11.22 -45.6736
LeftArm  -15.1632 27.6014 -25.1128
LeftForeArm  18.4874 -25.5455 -4.49482
LeftHand  -0.25398 0.0180481 5.50724
RightShoulder  5.23051 9.17071 35.3018
RightArm  1.71639 -23.1812 34.6039
RightForeArm  -11.1808 27.056 6.39294
RightHand  -0.796406 -0.168503 -17.6501
LeftUpLeg  0.684678 9.80295 8.97718
LeftLeg  30.313 12.062 7.8573
LeftFoot  -2.65617 0.0405887 -0.310908
LeftToes  1.06246e-005 4.65856e-005 -8.18501e-006
467
root  -14.4843 40.0802 -22.3249 -120.496 -84.582 114.43
RightUpLeg  -10.0044 -19.4198 -14.1006
RightLeg  16.4417 1.19926 1.60864
RightFoot  -0.564013 -0.765453 8.07563
RightToes  0.00048216 0.542163 -0.142577
Spine  14.2562 -1.01287 12.8256
Spine1  11.9167 4.47893 -12.5083
HEad  20.2124 51.3877 -11.8892
LeftShoulder1  7.6338 -11.1247 -45.4834
LeftArm  -15.9289 27.2933 -25.0034
LeftForeArm  18.6671 -25.8575 -4.55331
LeftHand  -0.25398 0.0180481 5.50724
RightShoulder  5.23352 9.14659 35.4024
RightArm  3.04973 -24.433 34.7072
RightForeArm  -11.8026 26.6048 6.31507
RightHand  -0.81609 -0.0665974 -17.752
LeftUpLeg  2.31998 7.83904 11.1237
LeftLeg  30.5905 11.7481 7.74663
LeftFoot  -1.54252 0.10989 -1.16856
LeftToes  1.06246e-005 4.65856e-005 -8.18501e-006
468
root  -13.5079 39.7743 -21.6091 -105.428 -85.2743 99.5873
RightUpLeg  -11.8505 -20.4258 -14.6581
RightLeg  17.2333 0.599159 1.02821
RightFoot  -1.23172 -0.989842 11.0595
RightToes  0.00048216 0.542163 -0.142577
Spine  14.101 -1.2403 12.959
Spine1  11.7363 4.19596 -12.3395
HEad  19.7901 51.035 -12.143
LeftShoulder1  7.58119 -11.0989 -45.2408
LeftArm  -16.8406 27.0886 -25.0143
LeftForeArm  19.0426 -26.1861 -4.60528
LeftHand  -0.25398 0.0180481 5.50724
RightShoulder  5.24114 9.11631 35.559
RightArm  4.54186 -25.5378 34.6875
RightForeArm  -12.2701 26.1969 6.24075
RightHand  -0.744039 -0.484146 -17.5075
LeftUpLeg  3.33281 5.72819 12.7703
LeftLeg  31.2462 10.4678 7.12095
LeftFoot  0.334257 0.111258 -1.13843
LeftToes  1.06246e-005 4.65856e-005 -8.18501e-006
469
root  -12.4797 39.4215 -20.7813 -89.2325 -85.6157 83.504
RightUpLeg  -13.6236 -21.5771 -15.388
RightLeg  17.9285 0.130263 0.623353
RightFoot  -1.66845 -1.1183 13.0239
RightToes  0.00048216 0.542163 -0.142577
Spine  14.1134 -1.40795 13.2456
Spine1  11.7074 4.02428 -12.0706
HEad  19.2326 50.5226 -12.7193
LeftShoulder1  7.57188 -11.0778 -45.2507
LeftArm  -17.6663 26.8 -24.9865
LeftForeArm  19.479 -26.5185 -4.65512
LeftHand  -0.25398 0.0180481 5.50724
RightShoulder  5.21183 9.06399 35.4996
RightArm  5.92032 -26.3587 34.7577
RightForeArm  -12.4736 25.8082 6.15906
RightHand  -0.608523 -1.27955 -16.9937
LeftUpLeg  4.03222 4.16426 13.7102
LeftLeg  32.4396 7.6986 5.58231
LeftFoot  2.07816 0.0699588 -0.648378
LeftToes  1.06246e-005 4.65856e-005 -8.18501e-006
470
root  -11.4222 39.0754 -19.8599 -77.3811 -85.7975 71.5468
RightUpLeg  -14.9304 -21.8303 -16.225
RightLeg  17.8332 -0.474384 0.394763
RightFoot  -1.71627 -1.18456 13.8663
RightToes  0.00048216 0.542163 -0.142577
Spine  14.2177 -1.43349 13.5617
Spine1  11.9916 3.9983 -11.6402
HEad  18.6209 50.0759 -13.3867
LeftShoulder1  7.58758 -11.0336 -45.4907
LeftArm  -18.1377 26.5277 -24.9678
LeftForeArm  20.01 -26.923 -4.71619
LeftHand  -0.25398 0.0180481 5.50724
RightShoulder  5.13395 8.99146 35.124
RightArm  7.24182 -26.8571 35.0039
RightForeArm  -12.6911 25.4007 6.07426
RightHand  -0.57459 -1.51505 -16.9665
LeftUpLeg  5.3076 3.71529 14.3207
LeftLeg  33.1119 4.31214 3.38368
LeftFoot  1.87149 0.396068 -3.5729
LeftToes  1.06246e-005 4.65856e-005 -8.18501e-006
471
root  -10.3764 38.7733 -18.8667 -69.5228 -86.0491 63.471
RightUpLeg  -15.5264 -21.4186 -17.1767
RightLeg  16.4157 -1.27548 0.423659
RightFoot  -1.06869 -1.31791 14.4975
RightToes  0.00048216 0.542163 -0.142577
Spine  14.1479 -1.34381 13.7877
Spine1  12.3662 4.02364 -11.325
HEad  18.3985 49.7585 -13.501
LeftShoulder1  7.57752 -10.9773 -45.6105
LeftArm  -18.2813 26.6729 -25.1724
LeftForeArm  20.95 -27.534 -4.80197
LeftHand  -0.25398 0.0180481 5.50724
RightShoulder  5.05147 8.90269 34.7596
RightArm  8.49829 -27.2089 35.1565
RightForeArm  -13.018 25.1165 6.02367
RightHand  -0.672212 -0.967612 -17.492
LeftUpLeg  7.54254 4.49186 14.8725
LeftLeg  31.743 1.60787 1.43303
LeftFoot  -1.79595 0.918622 -11.2712
LeftToes  1.06246e-005 4.65856e-005 -8.18501e-006
472
root  -9.33547 38.5087 -17.8122 -63.4903 -86.0862 57.3254
RightUpLeg  -15.6153 -21.2724 -18.4872
RightLeg  13.9195 -2.25578 0.724053
RightFoot  0.118863 -1.5406 15.2868
RightToes  0.00048216 0.542163 -0.142577
Spine  13.8706 -1.20569 13.406
Spine1  12.4949 3.8969 -11.0976
HEad  18.3638 49.3484 -13.1281
LeftShoulder1  7.54616 -10.9243 -45.5876
LeftArm  -18.2926 27.2438 -25.5285
LeftForeArm  22.2033 -28.322 -4.91156
LeftHand  -0.25398 0.0180481 5.50724
RightShoulder  5.01768 8.82657 34.7371
RightArm  8.94767 -27.6084 34.9931
RightForeArm  -13.0015 25.174 6.03626
RightHand  -0.737923 -0.561098 -17.6392
LeftUpLeg  9.96512 6.30112 14.8603
LeftLeg  28.3046 -0.318837 0.160283
LeftFoot  -8.47301 0.52819 -18.4723
LeftToes  1.06246e-005 4.65856e-005 -8.18501e-006
473
root  -8.23489 38.3014 -16.7347 -60.4565 -85.4207 54.3116
RightUpLeg  -15.329 -20.9559 -20.5558
RightLeg  10.7295 -3.83177 1.04529
RightFoot  0.39327 -1.55622 15.0855
RightToes  0.00048216 0.542163 -0.142577
Spine  13.8447 -1.01686 11.629
Spine1  12.2858 3.49162 -10.4768
HEad  17.4558 48.4175 -13.1174
LeftShoulder1  7.58024 -10.9301 -45.7812
LeftArm  -18.0569 27.4928 -25.6207
LeftForeArm  22.892 -28.6569 -4.94979
LeftHand  -0.25398 0.0180481 5.50724
RightShoulder  5.05246 8.81864 35.0405
RightArm  7.57595 -28.0791 34.7975
RightForeArm  -12.4992 25.5387 6.09737
RightHand  -0.699586 -0.703517 -17.2164
LeftUpLeg  11.1925 8.45915 13.3479
LeftLeg  24.8381 -1.62049 -0.489649
LeftFoot  -15.3628 -0.559208 -19.216
LeftToes  1.06246e-005 4.65856e-005 -8.18501e-006
474
root  -7.04455 38.1859 -15.7036 -60.6434 -84.0803 54.6052
RightUpLeg  -14.7353 -19.8379 -23.0055
RightLeg  6.79853 -5.79712 1.01431
RightFoot  -1.53395 -1.13385 12.9591
RightToes  0.00048216 0.542163 -0.142577
Spine  14.4028 -0.703449 8.56759
Spine1  11.8148 2.97921 -9.35098
HEad  15.2687 46.5382 -13.7318
LeftShoulder1  7.70838 -11.0413 -46.2131
LeftArm  -17.1509 26.6858 -25.2175
LeftForeArm  22.2763 -27.6403 -4.75463
LeftHand  -0.25398 0.0180481 5.50724
RightShoulder  5.14145 8.88939 35.5155
RightArm  4.59537 -28.5325 35.1058
RightForeArm  -11.9821 25.7978 6.13326
RightHand  -0.693207 -0.732823 -17.1578
LeftUpLeg  10.4056 9.6356 10.0918
LeftLeg  23.453 -1.51085 -0.380619
LeftFoot  -19.9955 -1.0316 -15.107
LeftToes  1.06246e-005 4.65856e-005 -8.18501e-006
